{"title":"[ShepardTDS] Demon King Daimao Dual Audio Uncensored [720p 8-bit","uid":12655705,"size":2424516290,"categoryP":"video","categoryS":"tv_shows","magnet":"?xt=urn:btih:2d0660fe59de6f18d6b2b17b02465afd3610b201&amp;dn=%5BShepardTDS%5D+Demon+King+Daimao+Dual+Audio+Uncensored+%5B720p+8-bit&amp;tr=udp%3A%2F%2Ftracker.leechers-paradise.org%3A6969&amp;tr=udp%3A%2F%2Fzer0day.ch%3A1337&amp;tr=udp%3A%2F%2Fopen.demonii.com%3A1337&amp;tr=udp%3A%2F%2Ftracker.coppersurfer.tk%3A6969&amp;tr=udp%3A%2F%2Fexodus.desync.com%3A6969","seeders":3,"leechers":0,"uploader":"ShepardTDS","files":14,"time":1446210249,"description":"Constant Quality encoding.\r\nVariable Bit rates\r\nED and OP included\r\nBlu-Ray Source\r\n\r\nGeneral\r\n\r\nFormat : Matroska\r\nFile size : 162 MiB-215 MiB\r\nDuration : 23mn 41s\r\nOverall bit rate : 958 Kbps-1,270 Kbps\r\nEncoded date : UTC 2015-10-23 12:17:07\r\nWriting application : mkvmerge v7.7.0 ('Six Voices') 32bit built on Feb 28 2015 23:23:00\r\nWriting library : libebml v1.3.1 + libmatroska v1.4.2\r\n\r\nVideo\r\nID : 1\r\nFormat : V_MPEGH/ISO/HEVC\r\nCodec ID : V_MPEGH/ISO/HEVC\r\nDuration : 23mn 41s\r\nBit rate : 555 Kbps-861 Kbps\r\nWidth : 1 280 pixels\r\nHeight : 720 pixels\r\nDisplay aspect ratio : 16:9\r\nFrame rate : 23.976 fps\r\nBits/(Pixel*Frame) : 0.025\r\nStream size : 94.0 MiB (58%)\r\n\r\nAudio #1\r\nID : 2\r\nFormat : AC-3\r\nFormat/Info : Audio Coding 3\r\nMode extension : CM (complete main)\r\nCodec ID : A_AC3\r\nDuration : 23mn 41s\r\nBit rate mode : Constant\r\nBit rate : 192 Kbps\r\nChannel(s) : 2 channels\r\nChannel positions : Front: L R\r\nSampling rate : 48.0 KHz\r\nBit depth : 16 bits\r\nCompression mode : Lossy\r\nStream size : 32.5 MiB (20%)\r\nLanguage : English\r\n\r\nAudio #2\r\nID : 3\r\nFormat : AC-3\r\nFormat/Info : Audio Coding 3\r\nMode extension : CM (complete main)\r\nCodec ID : A_AC3\r\nDuration : 23mn 41s\r\nBit rate mode : Constant\r\nBit rate : 192 Kbps\r\nChannel(s) : 2 channels\r\nChannel positions : Front: L R\r\nSampling rate : 48.0 KHz\r\nBit depth : 16 bits\r\nCompression mode : Lossy\r\nStream size : 32.5 MiB (20%)\r\nLanguage : Japanese\r\n\r\nText #1\r\nID : 4\r\nFormat : ASS\r\nCodec ID : S_TEXT/ASS\r\nCodec ID/Info : Advanced Sub Station Alpha\r\nCompression mode : Lossless\r\nTitle : Signs/Songs\r\nLanguage : English\r\n\r\nText #2\r\nID : 5\r\nFormat : ASS\r\nCodec ID : S_TEXT/ASS\r\nCodec ID/Info : Advanced Sub Station Alpha\r\nCompression mode : Lossless\r\nTitle : Dialogue\r\nLanguage : Japanese\r\n\r\nMenu\r\n00:00:00.000 : en:Prologue\r\n00:01:10.988 : en:Opening\r\n00:02:40.619 : en:Part 1\r\n00:09:58.014 : en:Part 2\r\n00:22:09.245 : en:Ending","torrent":{"xt":"urn:btih:2d0660fe59de6f18d6b2b17b02465afd3610b201","amp;dn":"%5BShepardTDS%5D+Demon+King+Daimao+Dual+Audio+Uncensored+%5B720p+8-bit","amp;tr":["udp%3A%2F%2Ftracker.leechers-paradise.org%3A6969","udp%3A%2F%2Fzer0day.ch%3A1337","udp%3A%2F%2Fopen.demonii.com%3A1337","udp%3A%2F%2Ftracker.coppersurfer.tk%3A6969","udp%3A%2F%2Fexodus.desync.com%3A6969"],"infoHash":"2d0660fe59de6f18d6b2b17b02465afd3610b201","infoHashBuffer":{"type":"Buffer","data":[45,6,96,254,89,222,111,24,214,178,177,123,2,70,90,253,54,16,178,1]},"announce":[],"urlList":[]}}